<svg width="28" height="29" viewBox="0 0 28 29" fill="none" xmlns="http://www.w3.org/2000/svg">
<path d="M14.0002 28.0911C21.5063 28.0911 27.5912 22.0062 27.5912 14.5001C27.5912 6.99396 21.5063 0.909058 14.0002 0.909058C6.49408 0.909058 0.40918 6.99396 0.40918 14.5001C0.40918 22.0062 6.49408 28.0911 14.0002 28.0911Z" fill="#478CF7"/>
<path d="M3.68805 22.3926H3.68681C3.60793 22.3926 3.53305 22.3551 3.48668 22.2913C2.66543 21.1876 2.02793 19.9701 1.59043 18.6726C1.13918 17.3301 0.90918 15.9263 0.90918 14.5001C0.910555 7.28256 6.78305 1.41006 14.0006 1.40881C14.9856 1.40881 15.9667 1.52006 16.9193 1.73756C16.9844 1.75256 17.0406 1.79131 17.0756 1.84756C17.1106 1.90506 17.1218 1.97131 17.1068 2.03631C17.0768 2.16881 16.9419 2.25506 16.8081 2.22506C15.8931 2.01506 14.9481 1.90881 14.0006 1.90881C10.6431 1.90881 7.48293 3.22006 5.1018 5.60131C2.72055 7.98256 1.4093 11.1426 1.4093 14.5001C1.4093 17.2201 2.2668 19.8113 3.88805 21.9926C3.9693 22.1038 3.9468 22.2613 3.8368 22.3426C3.79305 22.3751 3.7418 22.3926 3.68805 22.3926ZM17.8293 2.49131C17.8043 2.49131 17.7793 2.48756 17.7556 2.48131C17.7543 2.48006 17.7543 2.48006 17.7543 2.48006C17.6229 2.43881 17.5492 2.29881 17.5904 2.16756C17.6304 2.03756 17.7742 1.96256 17.9042 2.00381C18.0356 2.04506 18.1079 2.18506 18.0681 2.31631C18.0343 2.42131 17.9393 2.49131 17.8293 2.49131Z" fill="#5E9CF7"/>
<path d="M22.9653 4.28503C25.0669 6.67778 26.3412 9.81516 26.3412 13.25C26.3412 20.7562 20.2563 26.841 12.7502 26.841C9.31516 26.841 6.17791 25.5668 3.78516 23.4652C6.27603 26.301 9.92903 28.091 14.0002 28.091C21.5063 28.091 27.5912 22.0062 27.5912 14.5C27.5913 10.4289 25.8012 6.77591 22.9653 4.28503Z" fill="#377DE2"/>
<path d="M23.2934 4.5824C25.5715 7.01277 26.9666 10.281 26.9666 13.875C26.9666 21.3811 20.8818 27.466 13.3756 27.466C9.78151 27.466 6.51338 26.0709 4.08301 23.7928C6.56276 26.4381 10.0886 28.091 14.0006 28.091C21.5068 28.091 27.5916 22.0061 27.5916 14.5C27.5916 10.588 25.9388 7.06215 23.2934 4.5824Z" fill="#2266D3"/>
<path d="M14.0003 25.215C8.09191 25.215 3.28516 20.4083 3.28516 14.5C3.28516 8.59178 8.09191 3.78503 14.0003 3.78503C19.9087 3.78503 24.7154 8.59178 24.7154 14.5C24.7154 20.4083 19.9087 25.215 14.0003 25.215ZM14.0003 4.78503C8.64341 4.78503 4.28516 9.14316 4.28516 14.5C4.28516 19.8569 8.64341 24.215 14.0003 24.215C19.3572 24.215 23.7154 19.8569 23.7154 14.5C23.7154 9.14316 19.3572 4.78503 14.0003 4.78503Z" fill="#2266D3"/>
<path d="M14.0005 25.215C10.714 25.215 8.13965 20.5084 8.13965 14.5C8.13965 8.49166 10.714 3.78503 14.0005 3.78503C17.287 3.78503 19.8614 8.49166 19.8614 14.5C19.8614 20.5084 17.287 25.215 14.0005 25.215ZM14.0005 4.78503C11.3656 4.78503 9.13965 9.23391 9.13965 14.5C9.13965 19.7662 11.3656 24.215 14.0005 24.215C16.6354 24.215 18.8614 19.7662 18.8614 14.5C18.8614 9.23391 16.6354 4.78503 14.0005 4.78503Z" fill="#2266D3"/>
<path d="M13.5 4.28503H14.5V24.715H13.5V4.28503Z" fill="#2266D3"/>
<path d="M4.2998 17.2086H23.7017V18.2086H4.2998V17.2086Z" fill="#2266D3"/>
<path d="M4.2998 10.7914H23.7017V11.7914H4.2998V10.7914Z" fill="#2266D3"/>
<path d="M11.7861 19.9876C11.7861 18.7648 12.7774 17.7736 14.0001 17.7736C15.2229 17.7736 16.2141 18.7648 16.2141 19.9876C16.2141 20.9202 14.9261 22.4829 14.3149 23.1719C14.1471 23.3611 13.8531 23.3611 13.6854 23.1719C13.0743 22.4828 11.7861 20.9202 11.7861 19.9876Z" fill="#FFA91A"/>
<path d="M12.3008 19.4737C12.3008 18.5348 13.0619 17.7736 14.0009 17.7736C14.9399 17.7736 15.701 18.5347 15.701 19.4737C15.701 20.1898 14.7119 21.3898 14.2427 21.9189C14.1139 22.0642 13.888 22.0642 13.7593 21.9189C13.2899 21.3898 12.3008 20.1898 12.3008 19.4737Z" fill="#EF7816"/>
<path d="M12.9727 18.8018C12.9727 18.2339 13.433 17.7737 14.0008 17.7736C14.5687 17.7736 15.0289 18.2339 15.029 18.8018C15.029 19.2349 14.4309 19.9607 14.147 20.2807C14.0692 20.3684 13.9327 20.3684 13.8547 20.2807C13.5708 19.9606 12.9727 19.2349 12.9727 18.8018Z" fill="#E63950"/>
<path d="M16.0089 18.5951H11.9912C11.8428 18.5951 11.7227 18.4748 11.7227 18.3266V10.6175C11.7227 9.15471 12.1817 7.72009 13.0493 6.47084L13.3623 6.02009C13.6712 5.57534 14.3289 5.57534 14.6378 6.02009L14.9508 6.47084C15.8184 7.72021 16.2774 9.15471 16.2774 10.6175V18.3266C16.2774 18.4748 16.1573 18.5951 16.0089 18.5951Z" fill="white"/>
<path d="M16.2774 10.6174C16.2774 9.1547 15.8184 7.72007 14.9508 6.47082L14.6378 6.02007C14.5358 5.8732 14.3955 5.77595 14.2427 5.72607L14.3258 5.84582C15.1934 7.09507 15.6524 8.5297 15.6524 9.99245V17.7016C15.6524 17.8499 15.5322 17.9701 15.3839 17.9701H11.7227V18.3266C11.7227 18.4749 11.8429 18.5951 11.9912 18.5951H16.0089C16.1573 18.5951 16.2774 18.4748 16.2774 18.3266V10.6174Z" fill="#E6E7E8"/>
<path d="M11.7227 10.9727H16.2775V11.9414H11.7227V10.9727Z" fill="#FFA91A"/>
<path d="M15.6533 10.9727H16.2783V11.9414H15.6533V10.9727Z" fill="#F79219"/>
<path d="M11.7705 9.80212H16.23C16.1918 9.47562 16.1305 9.15212 16.047 8.83337H11.9535C11.87 9.15212 11.8088 9.47562 11.7705 9.80212Z" fill="#FFA91A"/>
<path d="M16.2305 9.80112C16.2289 9.78775 16.2268 9.77437 16.2252 9.761C16.2162 9.68825 16.2064 9.6155 16.1952 9.54312C16.1902 9.51112 16.1842 9.47925 16.1788 9.44725C16.1698 9.39387 16.1607 9.3405 16.1504 9.28725C16.1433 9.25062 16.1354 9.214 16.1277 9.1775C16.1175 9.12912 16.1073 9.08062 16.0962 9.03237C16.0874 8.99437 16.0779 8.95637 16.0684 8.9185C16.0613 8.89 16.0539 8.86175 16.0464 8.83337H15.5557C15.6093 9.15337 15.6407 9.47687 15.6495 9.80212H16.2305C16.2305 9.80175 16.2305 9.8015 16.2305 9.80112Z" fill="#F79219"/>
<path d="M20.1166 16.6387V17.0226C20.1166 17.4373 19.7803 17.7736 19.3657 17.7736H16.2783V13.2834L19.8269 16.0461C20.0097 16.1884 20.1166 16.4071 20.1166 16.6387Z" fill="#FFA91A"/>
<path d="M7.88477 16.6387V17.0226C7.88477 17.4373 8.22102 17.7736 8.63577 17.7736H11.7231V13.2834L8.17452 16.0461C7.99164 16.1884 7.88477 16.4071 7.88477 16.6387Z" fill="#FFA91A"/>
<path d="M14.3474 17.7736H13.6538C13.4704 17.7736 13.3267 17.6163 13.3431 17.4337L13.6898 13.5682C13.7043 13.4073 13.8391 13.2841 14.0006 13.2841C14.1621 13.2841 14.2969 13.4073 14.3113 13.5682L14.6582 17.4337C14.6747 17.6163 14.5308 17.7736 14.3474 17.7736Z" fill="#FFA91A"/>
<path d="M7.92598 9.58724C7.64085 10.2075 7.14023 10.7081 6.51998 10.9932C6.29673 11.0959 6.29673 11.4102 6.51998 11.5129C7.14023 11.798 7.64085 12.2986 7.92598 12.9189C8.0286 13.1421 8.34298 13.1421 8.4456 12.9189C8.73073 12.2986 9.23135 11.798 9.8516 11.5129C10.0749 11.4102 10.0749 11.0959 9.8516 10.9932C9.23135 10.7081 8.73073 10.2075 8.4456 9.58724C8.34298 9.36399 8.0286 9.36399 7.92598 9.58724Z" fill="#FFA91A"/>
<path d="M9.85191 10.9931C9.68466 10.9162 9.52704 10.8226 9.37916 10.7162C9.35629 10.7873 9.30641 10.8512 9.22691 10.8877C8.60666 11.1728 8.10604 11.6734 7.82091 12.2937C7.78441 12.3732 7.72054 12.4231 7.64941 12.4459C7.75579 12.5939 7.84941 12.7514 7.92629 12.9187C8.02891 13.1419 8.34329 13.1419 8.44591 12.9187C8.73104 12.2984 9.23166 11.7978 9.85191 11.5127C10.0752 11.4102 10.0752 11.0957 9.85191 10.9931Z" fill="#F79219"/>
<path d="M19.5549 9.58724C19.2698 10.2075 18.7691 10.7081 18.1489 10.9932C17.9256 11.0959 17.9256 11.4102 18.1489 11.5129C18.7691 11.798 19.2698 12.2986 19.5549 12.9189C19.6575 13.1421 19.9719 13.1421 20.0745 12.9189C20.3596 12.2986 20.8603 11.798 21.4805 11.5129C21.7038 11.4102 21.7038 11.0959 21.4805 10.9932C20.8603 10.7081 20.3596 10.2075 20.0745 9.58724C19.9719 9.36399 19.6575 9.36399 19.5549 9.58724Z" fill="#FFA91A"/>
<path d="M21.4808 10.9931C21.3136 10.9162 21.1559 10.8226 21.0081 10.7162C20.9852 10.7873 20.9353 10.8512 20.8558 10.8877C20.2356 11.1728 19.7349 11.6734 19.4498 12.2937C19.4133 12.3732 19.3494 12.4231 19.2783 12.4459C19.3846 12.5939 19.4783 12.7514 19.5552 12.9187C19.6578 13.1419 19.9722 13.1419 20.0748 12.9187C20.3599 12.2984 20.8606 11.7978 21.4808 11.5127C21.7041 11.4102 21.7041 11.0957 21.4808 10.9931Z" fill="#F79219"/>
</svg>
